REM DIRINDEX 1\2\3,1\2\4,1\2\5,1\2\6
REM DIRNAME cjc157,folder01,folder02,folder03,folder04,folder05
TITLE ""
FILE "009 009.mp3" MP3
  TRACK 01 AUDIO
    TITLE "0:"
    INDEX 01 00:00:00
  TRACK 02 AUDIO
    TITLE "3:cjc157_0281"
    INDEX 01 00:00:11
  TRACK 03 AUDIO
    TITLE "0:"
    INDEX 01 00:01:54
  TRACK 04 AUDIO
    TITLE "4:cjc157_0282"
    INDEX 01 00:02:28
  TRACK 05 AUDIO
    TITLE "0:"
    INDEX 01 00:03:41
  TRACK 06 AUDIO
    TITLE "5:cjc157_0283"
    INDEX 01 00:04:11
  TRACK 07 AUDIO
    TITLE "0:"
    INDEX 01 00:07:54
  TRACK 08 AUDIO
    TITLE "3:cjc157_0284"
    INDEX 01 00:08:26
  TRACK 09 AUDIO
    TITLE "0:"
    INDEX 01 00:09:47
  TRACK 10 AUDIO
    TITLE "4:cjc157_0285"
    INDEX 01 00:10:21
  TRACK 11 AUDIO
    TITLE "0:"
    INDEX 01 00:11:39
  TRACK 12 AUDIO
    TITLE "5:cjc157_0286"
    INDEX 01 00:12:09
  TRACK 13 AUDIO
    TITLE "0:"
    INDEX 01 00:13:69
  TRACK 14 AUDIO
    TITLE "5:cjc157_0287"
    INDEX 01 00:14:37
  TRACK 15 AUDIO
    TITLE "0:"
    INDEX 01 00:16:22
  TRACK 16 AUDIO
    TITLE "5:cjc157_0288"
    INDEX 01 00:16:65
  TRACK 17 AUDIO
    TITLE "0:"
    INDEX 01 00:18:54
  TRACK 18 AUDIO
    TITLE "3:cjc157_0289"
    INDEX 01 00:19:26
  TRACK 19 AUDIO
    TITLE "0:"
    INDEX 01 00:20:53
  TRACK 20 AUDIO
    TITLE "4:cjc157_0290"
    INDEX 01 00:21:25
  TRACK 21 AUDIO
    TITLE "0:"
    INDEX 01 00:22:34
  TRACK 22 AUDIO
    TITLE "5:cjc157_0291"
    INDEX 01 00:23:04
  TRACK 23 AUDIO
    TITLE "0:"
    INDEX 01 00:24:63
  TRACK 24 AUDIO
    TITLE "5:cjc157_0292"
    INDEX 01 00:25:33
  TRACK 25 AUDIO
    TITLE "0:"
    INDEX 01 00:26:69
  TRACK 26 AUDIO
    TITLE "5:cjc157_0293"
    INDEX 01 00:27:36
  TRACK 27 AUDIO
    TITLE "0:"
    INDEX 01 00:29:27
  TRACK 28 AUDIO
    TITLE "3:cjc157_0294"
    INDEX 01 00:30:01
  TRACK 29 AUDIO
    TITLE "0:"
    INDEX 01 00:31:43
  TRACK 30 AUDIO
    TITLE "4:cjc157_0295"
    INDEX 01 00:32:09
  TRACK 31 AUDIO
    TITLE "0:"
    INDEX 01 00:33:26
  TRACK 32 AUDIO
    TITLE "5:cjc157_0296"
    INDEX 01 00:33:69
  TRACK 33 AUDIO
    TITLE "0:"
    INDEX 01 00:36:15
  TRACK 34 AUDIO
    TITLE "5:cjc157_0297"
    INDEX 01 00:36:62
  TRACK 35 AUDIO
    TITLE "0:"
    INDEX 01 00:38:51
  TRACK 36 AUDIO
    TITLE "3:cjc157_0298"
    INDEX 01 00:39:23
  TRACK 37 AUDIO
    TITLE "0:"
    INDEX 01 00:40:28
  TRACK 38 AUDIO
    TITLE "4:cjc157_0299"
    INDEX 01 00:40:72
  TRACK 39 AUDIO
    TITLE "0:"
    INDEX 01 00:41:69
  TRACK 40 AUDIO
    TITLE "5:cjc157_0300"
    INDEX 01 00:42:39
  TRACK 41 AUDIO
    TITLE "0:"
    INDEX 01 00:45:45
  TRACK 42 AUDIO
    TITLE "5:cjc157_0301"
    INDEX 01 00:46:11
  TRACK 43 AUDIO
    TITLE "0:"
    INDEX 01 00:47:66
  TRACK 44 AUDIO
    TITLE "5:cjc157_0302"
    INDEX 01 00:48:32
  TRACK 45 AUDIO
    TITLE "0:"
    INDEX 01 00:50:19
  TRACK 46 AUDIO
    TITLE "3:cjc157_0303"
    INDEX 01 00:50:64
  TRACK 47 AUDIO
    TITLE "0:"
    INDEX 01 00:52:39
  TRACK 48 AUDIO
    TITLE "4:cjc157_0304"
    INDEX 01 00:53:11
  TRACK 49 AUDIO
    TITLE "0:"
    INDEX 01 00:54:21
  TRACK 50 AUDIO
    TITLE "5:cjc157_0305"
    INDEX 01 00:54:64
  TRACK 51 AUDIO
    TITLE "0:"
    INDEX 01 00:56:67
  TRACK 52 AUDIO
    TITLE "5:cjc157_0306"
    INDEX 01 00:57:37
  TRACK 53 AUDIO
    TITLE "0:"
    INDEX 01 00:59:69
  TRACK 54 AUDIO
    TITLE "3:cjc157_0307"
    INDEX 01 01:00:37
  TRACK 55 AUDIO
    TITLE "0:"
    INDEX 01 01:02:12
  TRACK 56 AUDIO
    TITLE "4:cjc157_0308"
    INDEX 01 01:02:55
  TRACK 57 AUDIO
    TITLE "0:"
    INDEX 01 01:04:07
  TRACK 58 AUDIO
    TITLE "5:cjc157_0309"
    INDEX 01 01:04:56
  TRACK 59 AUDIO
    TITLE "0:"
    INDEX 01 01:08:21
  TRACK 60 AUDIO
    TITLE "5:cjc157_0310"
    INDEX 01 01:08:64
  TRACK 61 AUDIO
    TITLE "0:"
    INDEX 01 01:11:33
  TRACK 62 AUDIO
    TITLE "3:cjc157_0311"
    INDEX 01 01:12:03
  TRACK 63 AUDIO
    TITLE "0:"
    INDEX 01 01:13:42
  TRACK 64 AUDIO
    TITLE "4:cjc157_0312"
    INDEX 01 01:14:14
  TRACK 65 AUDIO
    TITLE "0:"
    INDEX 01 01:15:31
  TRACK 66 AUDIO
    TITLE "5:cjc157_0313"
    INDEX 01 01:16:07
  TRACK 67 AUDIO
    TITLE "0:"
    INDEX 01 01:19:30
  TRACK 68 AUDIO
    TITLE "5:cjc157_0314"
    INDEX 01 01:20:02
  TRACK 69 AUDIO
    TITLE "0:"
    INDEX 01 01:21:33
  TRACK 70 AUDIO
    TITLE "3:cjc157_0315"
    INDEX 01 01:22:03
  TRACK 71 AUDIO
    TITLE "0:"
    INDEX 01 01:23:30
  TRACK 72 AUDIO
    TITLE "4:cjc157_0316"
    INDEX 01 01:24:00
  TRACK 73 AUDIO
    TITLE "0:"
    INDEX 01 01:25:13
  TRACK 74 AUDIO
    TITLE "5:cjc157_0317"
    INDEX 01 01:25:60
  TRACK 75 AUDIO
    TITLE "0:"
    INDEX 01 01:28:10
  TRACK 76 AUDIO
    TITLE "5:cjc157_0318"
    INDEX 01 01:28:61
  TRACK 77 AUDIO
    TITLE "0:"
    INDEX 01 01:30:44
  TRACK 78 AUDIO
    TITLE "3:cjc157_0319"
    INDEX 01 01:31:18
  TRACK 79 AUDIO
    TITLE "0:"
    INDEX 01 01:32:43
  TRACK 80 AUDIO
    TITLE "4:cjc157_0320"
    INDEX 01 01:33:17
  TRACK 81 AUDIO
    TITLE "0:"
    INDEX 01 01:34:22
  TRACK 82 AUDIO
    TITLE "5:cjc157_0321"
    INDEX 01 01:34:73
  TRACK 83 AUDIO
    TITLE "0:"
    INDEX 01 01:39:06
  TRACK 84 AUDIO
    TITLE "5:cjc157_0322"
    INDEX 01 01:39:53
  TRACK 85 AUDIO
    TITLE "0:"
    INDEX 01 01:41:32
